<?xml version="1.0" standalone="no"?>
<!DOCTYPE svg PUBLIC "-//W3C//DTD SVG 20010904//EN"
 "http://www.w3.org/TR/2001/REC-SVG-20010904/DTD/svg10.dtd">
<svg version="1.0" xmlns="http://www.w3.org/2000/svg"
 width="1280.000000pt" height="720.000000pt" viewBox="0 0 1280.000000 720.000000"
 preserveAspectRatio="xMidYMid meet">

<g transform="translate(0.000000,720.000000) scale(0.100000,-0.100000)"
fill="#000000" stroke="none">
<path d="M2910 7106 c0 -53 4 -98 10 -101 6 -3 10 -14 10 -23 0 -13 -2 -13
-15 4 -14 18 -15 18 -40 -11 -44 -52 -71 -91 -52 -76 14 11 20 11 32 1 8 -7
15 -9 15 -5 0 4 -8 14 -17 21 -17 13 -17 13 0 14 10 0 15 5 12 10 -3 6 -2 10
3 10 5 0 9 -15 8 -32 -1 -23 -7 -32 -17 -31 -9 2 -15 -5 -15 -16 0 -11 5 -17
13 -14 18 7 16 -7 -4 -29 -19 -22 -6 -23 21 -3 11 8 23 15 28 15 4 0 9 -33 9
-72 2 -63 3 -67 9 -33 5 26 8 -8 9 -97 l1 -138 -84 0 c-46 0 -86 -4 -88 -10
-2 -6 -36 -6 -93 0 -49 5 -139 11 -200 14 -140 6 -81 -5 175 -34 188 -21 312
-38 318 -45 2 -2 5 -11 6 -22 2 -13 15 -20 51 -25 26 -4 51 -11 54 -16 9 -13
51 -22 51 -10 0 5 13 0 29 -11 15 -11 30 -18 33 -16 3 3 18 -1 34 -10 16 -8
37 -15 47 -15 9 0 17 -4 17 -10 0 -5 23 -10 50 -10 46 0 53 -3 68 -30 13 -24
22 -29 40 -25 19 5 21 3 11 -7 -7 -8 -39 -14 -78 -15 -36 0 -55 1 -42 4 17 3
20 7 11 13 -7 4 -26 4 -43 -1 -17 -5 -37 -4 -48 1 -24 13 -38 12 -19 -1 11 -7
-8 -8 -65 -4 -44 3 -120 8 -170 10 -173 9 -353 22 -435 31 -19 2 -147 13 -285
24 -375 31 -389 32 -407 36 -10 1 -20 -1 -23 -7 -4 -5 6 -10 22 -11 15 0 35
-1 43 -2 20 -1 26 -549 31 -2596 3 -1348 9 -2022 18 -1935 3 30 3 30 11 5 l8
-25 1 27 c1 15 6 30 11 33 6 4 10 -16 10 -54 0 -57 11 -84 25 -61 4 6 11 8 16
4 11 -6 39 13 39 28 0 5 -8 8 -17 6 -16 -3 -18 7 -18 96 l0 99 45 4 c25 2 50
5 57 8 6 2 14 -3 17 -11 10 -26 7 -122 -4 -129 -6 -3 -10 -11 -10 -16 0 -6 5
-7 11 -3 7 4 10 -1 7 -12 -2 -10 -13 -24 -26 -30 -12 -6 -19 -14 -15 -17 3 -4
1 -7 -4 -7 -6 0 -13 6 -16 13 -2 6 -8 9 -12 5 -14 -14 7 -28 42 -28 l36 0 -6
-850 -6 -850 728 0 729 0 6 402 c22 1339 27 1767 36 2708 5 575 10 1149 10
1276 l0 232 -157 7 c-87 4 -191 6 -230 6 l-73 -2 0 575 c0 545 1 576 18 585
24 13 23 102 -1 129 -19 21 -23 52 -7 52 6 0 15 -10 20 -22 8 -22 9 -22 11 -3
1 11 1 34 0 51 -1 18 3 35 10 40 9 5 10 1 6 -17 -6 -24 -6 -24 11 -4 38 43 42
31 42 -108 0 -134 5 -318 11 -417 2 -30 6 24 9 120 l5 175 55 -89 c30 -49 54
-93 53 -98 -2 -4 2 -9 7 -9 6 -1 16 -2 23 -3 18 -2 62 41 62 61 0 10 10 22 23
28 12 5 22 15 22 22 0 7 5 12 12 10 7 -1 12 3 13 8 0 6 5 17 10 25 5 8 8 23 7
33 -2 10 2 25 9 33 11 13 30 86 29 109 -5 100 -4 178 2 181 11 7 -3 67 -21 87
-16 19 -20 96 -10 226 4 54 4 54 93 135 49 45 97 89 108 99 10 9 21 17 26 17
4 0 19 11 34 25 15 14 31 25 36 25 5 0 16 8 23 17 12 14 84 70 248 192 25 19
52 41 60 49 8 7 31 24 52 37 20 13 61 43 90 67 30 24 78 61 107 83 l53 40 -76
3 c-85 3 -70 10 -192 -90 -28 -24 -80 -65 -113 -93 -34 -27 -82 -69 -106 -91
-24 -23 -44 -40 -44 -37 0 2 -7 -2 -15 -11 -19 -19 -19 -23 3 -30 9 -2 5 -4
-9 -3 -18 1 -41 -10 -68 -33 -109 -91 -107 -89 -88 -90 11 0 17 -5 14 -12 -2
-7 -12 -12 -21 -12 -9 1 -16 -5 -16 -14 0 -12 -3 -13 -12 -4 -16 16 -28 15
-28 -3 0 -8 -9 -15 -19 -15 -11 0 -23 -4 -26 -10 -4 -6 1 -7 12 -4 15 5 15 4
3 -4 -8 -6 -18 -8 -22 -6 -8 5 -101 -54 -106 -68 -10 -22 -21 -2 -26 45 -2 28
-7 68 -11 87 -3 19 -7 134 -9 255 -2 121 -5 226 -5 233 -1 9 -76 12 -341 12
l-340 0 0 -94z m17 -49 c-2 -23 -3 -1 -3 48 0 50 1 68 3 42 2 -26 2 -67 0 -90z
m286 -36 c50 -28 85 -119 59 -157 -23 -35 -85 -43 -137 -18 -42 20 -63 51 -74
109 -7 36 -5 47 8 58 34 30 99 34 144 8z m794 -216 c0 -8 -4 -12 -9 -9 -4 3
-8 9 -8 15 0 5 4 9 8 9 5 0 9 -7 9 -15z m-47 -35 c0 -6 -8 -14 -17 -17 -10 -4
-24 -13 -31 -20 -8 -7 -18 -11 -23 -7 -5 3 5 16 23 29 37 26 48 30 48 15z
m-1006 -225 c3 -8 1 -15 -4 -15 -6 0 -10 7 -10 15 0 8 2 15 4 15 2 0 6 -7 10
-15z m-822 -316 c-3 -24 0 -39 7 -39 6 0 12 12 12 28 l1 27 9 -30 c7 -26 8
-25 5 12 -4 40 -3 42 23 38 14 -1 31 -3 36 -4 6 -1 9 -18 7 -41 -4 -37 -2 -40
22 -40 22 0 26 4 26 31 0 23 -4 30 -14 26 -10 -4 -13 -1 -10 8 3 8 12 11 20 8
10 -4 14 -27 16 -92 1 -57 3 -69 5 -36 6 69 23 83 24 20 1 -40 3 -44 8 -21 3
16 11 31 16 33 23 7 32 -122 31 -450 -1 -288 -3 -339 -16 -347 -12 -7 -12 -12
-2 -22 14 -14 16 -74 2 -83 -5 -3 -10 -14 -10 -23 0 -15 2 -15 10 -2 9 13 10
13 10 0 1 -8 3 -35 6 -60 3 -25 6 -62 7 -82 1 -21 7 -37 12 -35 11 2 12 5 15
67 2 39 3 42 11 20 6 -18 7 -13 3 21 -2 25 -1 65 5 87 6 29 6 40 -1 35 -7 -4
-9 12 -6 46 3 28 2 51 -1 51 -5 0 -5 473 0 490 1 3 0 16 -1 29 -1 13 2 21 7
18 4 -3 7 60 5 139 -2 96 0 144 7 144 6 0 12 -1 13 -2 1 -2 4 -82 8 -178 l7
-175 1 175 c1 229 1 224 10 216 4 -4 10 -128 13 -274 l6 -267 -1 248 c-1 136
2 247 7 247 4 0 7 -7 7 -15 0 -8 5 -15 10 -15 6 0 10 14 10 30 0 22 -5 30 -17
30 -13 0 -14 3 -6 11 18 18 46 2 40 -21 -3 -11 1 -27 9 -34 12 -12 14 -135 14
-765 0 -539 4 -751 11 -751 8 0 9 217 4 786 l-7 785 33 -3 c33 -3 34 -4 31
-40 -2 -23 1 -38 7 -38 6 0 11 16 11 35 0 19 4 35 8 35 4 0 6 -16 4 -35 -3
-21 0 -35 7 -35 7 0 12 -63 14 -192 3 -176 3 -173 2 34 0 125 3 224 7 220 4
-4 12 -46 17 -92 l9 -85 -1 82 c0 46 2 86 6 89 4 4 7 -7 7 -24 0 -39 20 -43
21 -4 3 57 18 -53 19 -139 1 -47 6 -92 11 -100 6 -9 8 19 6 81 -5 96 -2 120
14 120 5 0 10 -60 12 -132 l3 -133 1 148 c1 82 4 151 7 154 3 4 6 -109 6 -250
0 -165 -4 -257 -10 -257 -5 0 -10 -24 -9 -52 0 -35 3 -46 8 -34 9 23 10 -20
14 -549 2 -221 0 -308 -3 -195 l-6 205 -2 -201 -2 -201 -62 3 c-35 2 -107 4
-160 5 l-98 2 -2 381 c0 210 -1 387 -1 394 1 6 -2 12 -6 12 -3 0 -5 -178 -3
-396 2 -320 0 -395 -10 -392 -10 4 -12 82 -9 396 2 291 0 392 -8 392 -7 0 -11
6 -10 13 5 41 -3 147 -11 147 -10 0 -9 -124 5 -728 l5 -213 -58 3 -57 3 -3
115 c-4 183 -8 198 -10 34 l-2 -152 -72 2 -73 1 -3 -808 -2 -808 -28 -10 c-19
-8 -42 -7 -79 1 -50 11 -51 12 -48 43 3 18 7 164 9 326 3 162 9 297 14 300 17
11 21 40 7 51 -10 9 -14 45 -14 147 -1 74 -4 140 -8 146 -3 5 -1 7 5 3 6 -3
14 3 18 16 4 13 2 24 -5 26 -8 3 -11 71 -11 232 l0 228 53 7 c28 4 59 11 67
17 11 6 6 7 -15 4 -82 -14 -100 -12 -103 12 -2 12 -7 22 -12 22 -5 0 -9 71 -8
158 1 251 -14 742 -23 742 -5 0 -9 -74 -9 -165 0 -91 -4 -165 -9 -165 -5 0
-10 107 -11 238 -1 130 -5 298 -9 372 -9 183 -8 417 2 426 15 15 27 -20 28
-81 l2 -60 6 50 c4 28 13 70 20 95 l14 45 51 -3 51 -4 -3 -39z m745 -281 c-2
-35 -3 -7 -3 62 0 69 1 97 3 63 2 -35 2 -91 0 -125z m33 57 c0 -69 -4 -125 -9
-125 -5 0 -10 56 -10 125 -1 80 2 125 9 125 6 0 10 -46 10 -125z m245 75 c6
20 9 21 16 7 5 -9 12 -312 15 -674 2 -362 6 -686 8 -721 3 -62 3 -62 -23 -58
-14 2 -71 5 -126 5 -89 1 -101 3 -101 19 -1 9 -4 227 -8 485 -4 257 -9 475
-13 485 -5 14 -3 13 10 -3 19 -23 22 -9 7 31 -9 22 -8 25 3 16 10 -9 13 -5 12
16 0 15 -3 29 -7 32 -4 3 -3 31 1 63 4 31 4 57 -1 57 -4 0 -8 16 -8 36 0 19 4
33 9 30 5 -3 12 18 16 46 14 117 23 132 45 78 7 -17 20 -30 30 -30 20 0 46 27
36 37 -4 4 6 19 21 34 28 26 28 26 39 6 11 -20 12 -20 19 3z m-230 -992 l7
-448 -26 0 -26 0 -2 423 c-4 657 -2 742 16 766 14 18 21 -149 31 -741z m-938
-30 c-3 -7 -5 -2 -5 12 0 14 2 19 5 13 2 -7 2 -19 0 -25z m26 -1025 c-3 -10
-10 -24 -16 -31 -5 -7 -7 -33 -4 -58 3 -29 1 -41 -4 -33 -13 21 -11 113 3 127
17 17 28 15 21 -5z m141 -1029 c8 -3 12 -12 10 -19 -3 -7 -1 -16 5 -20 20 -12
13 -73 -10 -85 -16 -9 -28 -6 -64 14 -70 41 -66 30 5 -15 76 -48 75 -47 68
-55 -4 -3 -25 8 -49 25 -23 17 -52 31 -64 31 -29 0 -41 39 -19 60 11 10 18 11
21 4 2 -7 12 -10 22 -7 23 6 16 43 -8 44 -9 0 0 7 19 14 42 16 44 17 64 9z
m-69 -190 c13 -8 34 -15 47 -14 13 1 29 2 36 1 10 -1 13 -73 12 -368 -1 -203
-4 -387 -7 -410 l-6 -43 -63 0 c-68 0 -75 4 -46 27 16 14 16 14 0 9 -10 -3
-18 -1 -18 5 0 6 -4 7 -10 4 -5 -3 -10 -1 -10 4 0 10 21 16 43 12 16 -2 6 9
-20 23 -16 8 -22 15 -14 16 9 0 11 8 7 25 -4 14 -3 25 1 25 5 0 8 47 8 104 0
95 -1 103 -17 95 -22 -12 -36 -62 -31 -109 3 -30 2 -32 -8 -16 -27 45 19 167
58 152 15 -6 18 29 4 38 -5 3 -9 94 -9 201 0 172 2 196 16 205 10 5 12 10 5
10 -7 0 -13 5 -13 10 0 14 7 13 35 -6z"/>
<path d="M2185 6220 c-3 -5 -1 -10 4 -10 6 0 11 5 11 10 0 6 -2 10 -4 10 -3 0
-8 -4 -11 -10z"/>
<path d="M2183 6105 c0 -38 2 -53 4 -32 2 20 2 52 0 70 -2 17 -4 1 -4 -38z"/>
<path d="M2664 5925 c0 -121 2 -169 3 -107 2 62 2 161 0 220 -1 59 -3 8 -3
-113z"/>
<path d="M1993 6020 c0 -30 2 -43 4 -27 2 15 2 39 0 55 -2 15 -4 2 -4 -28z"/>
<path d="M2280 6003 c0 -18 5 -33 10 -33 13 0 13 30 0 50 -7 11 -10 7 -10 -17z"/>
<path d="M2152 5970 c0 -19 2 -27 5 -17 2 9 2 25 0 35 -3 9 -5 1 -5 -18z"/>
<path d="M2253 5960 c0 -25 2 -35 4 -22 2 12 2 32 0 45 -2 12 -4 2 -4 -23z"/>
<path d="M2321 5984 c0 -11 3 -14 6 -6 3 7 2 16 -1 19 -3 4 -6 -2 -5 -13z"/>
<path d="M2280 5710 c0 -134 2 -241 5 -238 7 7 9 468 1 475 -3 4 -6 -103 -6
-237z"/>
<path d="M2154 5655 c0 -148 2 -211 3 -138 2 72 2 194 0 270 -1 76 -3 17 -3
-132z"/>
<path d="M2320 5470 c0 -249 3 -450 7 -447 7 7 4 889 -3 896 -2 2 -4 -200 -4
-449z"/>
<path d="M2784 5640 c3 -140 6 -418 6 -618 0 -200 3 -361 8 -359 10 7 9 988
-2 1117 -4 58 -11 107 -14 110 -2 3 -2 -110 2 -250z"/>
<path d="M2253 5825 c0 -33 2 -45 4 -27 2 18 2 45 0 60 -2 15 -4 0 -4 -33z"/>
<path d="M1991 5834 c0 -21 4 -48 9 -59 5 -12 6 1 3 35 -7 66 -13 79 -12 24z"/>
<path d="M2461 5784 c0 -11 3 -14 6 -6 3 7 2 16 -1 19 -3 4 -6 -2 -5 -13z"/>
<path d="M2731 5774 c0 -11 3 -14 6 -6 3 7 2 16 -1 19 -3 4 -6 -2 -5 -13z"/>
<path d="M1992 5635 c0 -89 2 -101 8 -62 5 27 5 76 1 110 -8 56 -8 52 -9 -48z"/>
<path d="M2254 5595 c0 -82 2 -115 3 -72 2 43 2 110 0 150 -1 40 -3 5 -3 -78z"/>
<path d="M2490 5642 c0 -23 4 -42 9 -42 8 0 4 70 -4 79 -3 2 -5 -14 -5 -37z"/>
<path d="M2461 5654 c0 -11 3 -14 6 -6 3 7 2 16 -1 19 -3 4 -6 -2 -5 -13z"/>
<path d="M2752 5630 c0 -19 2 -27 5 -17 2 9 2 25 0 35 -3 9 -5 1 -5 -18z"/>
<path d="M2441 5624 c0 -11 3 -14 6 -6 3 7 2 16 -1 19 -3 4 -6 -2 -5 -13z"/>
<path d="M2191 5614 c0 -11 3 -14 6 -6 3 7 2 16 -1 19 -3 4 -6 -2 -5 -13z"/>
<path d="M2492 5550 c0 -14 2 -19 5 -12 2 6 2 18 0 25 -3 6 -5 1 -5 -13z"/>
<path d="M2735 5110 c0 -250 1 -353 2 -228 2 126 2 330 0 456 -1 125 -2 22 -2
-228z"/>
<path d="M2698 5222 c1 -180 3 -381 5 -447 1 -66 4 76 5 315 1 239 -2 440 -6
447 -4 6 -6 -136 -4 -315z"/>
<path d="M2750 5535 c0 -5 5 -17 10 -25 5 -8 10 -10 10 -5 0 6 -5 17 -10 25
-5 8 -10 11 -10 5z"/>
<path d="M2193 5490 c0 -25 2 -35 4 -22 2 12 2 32 0 45 -2 12 -4 2 -4 -23z"/>
<path d="M2192 5395 c0 -16 2 -22 5 -12 2 9 2 23 0 30 -3 6 -5 -1 -5 -18z"/>
<path d="M2542 5390 c0 -19 2 -27 5 -17 2 9 2 25 0 35 -3 9 -5 1 -5 -18z"/>
<path d="M2762 5380 c0 -14 2 -19 5 -12 2 6 2 18 0 25 -3 6 -5 1 -5 -13z"/>
<path d="M2834 5295 c0 -55 1 -76 3 -47 2 29 2 74 0 100 -2 26 -3 2 -3 -53z"/>
<path d="M2193 5320 c0 -25 2 -35 4 -22 2 12 2 32 0 45 -2 12 -4 2 -4 -23z"/>
<path d="M2251 5018 c0 -186 2 -338 7 -338 7 0 5 593 -2 650 -2 14 -4 -127 -5
-312z"/>
<path d="M2544 5185 c0 -88 2 -123 3 -77 2 46 2 118 0 160 -1 42 -3 5 -3 -83z"/>
<path d="M2284 5025 c0 -159 2 -223 3 -142 2 82 2 212 0 290 -1 78 -3 12 -3
-148z"/>
<path d="M2154 5010 c0 -143 2 -206 5 -150 3 52 4 162 0 245 -4 127 -5 113 -5
-95z"/>
<path d="M2194 5120 c0 -74 1 -105 3 -67 2 37 2 97 0 135 -2 37 -3 6 -3 -68z"/>
<path d="M2221 5224 c0 -11 3 -14 6 -6 3 7 2 16 -1 19 -3 4 -6 -2 -5 -13z"/>
<path d="M2674 5085 c0 -71 1 -99 3 -62 2 37 2 96 0 130 -2 34 -3 4 -3 -68z"/>
<path d="M2221 5184 c0 -11 3 -14 6 -6 3 7 2 16 -1 19 -3 4 -6 -2 -5 -13z"/>
<path d="M2091 5154 c0 -11 3 -14 6 -6 3 7 2 16 -1 19 -3 4 -6 -2 -5 -13z"/>
<path d="M2833 5100 c0 -30 2 -43 4 -27 2 15 2 39 0 55 -2 15 -4 2 -4 -28z"/>
<path d="M2097 5123 c-10 -10 -8 -413 2 -413 4 0 9 95 10 210 0 116 -1 210 -3
210 -1 0 -6 -3 -9 -7z"/>
<path d="M2057 5083 c-10 -53 -5 -182 7 -192 10 -8 12 14 10 100 -2 113 -7
141 -17 92z"/>
<path d="M2379 4962 c4 -72 5 -74 11 -32 4 25 5 51 3 58 -3 6 0 12 6 12 18 0
12 36 -6 37 -16 1 -18 -7 -14 -75z"/>
<path d="M2320 4984 c0 -8 5 -12 10 -9 6 3 10 10 10 16 0 5 -4 9 -10 9 -5 0
-10 -7 -10 -16z"/>
<path d="M2674 4795 c0 -77 2 -107 3 -67 2 40 2 103 0 140 -2 37 -3 4 -3 -73z"/>
<path d="M2542 4895 c0 -16 2 -22 5 -12 2 9 2 23 0 30 -3 6 -5 -1 -5 -18z"/>
<path d="M2372 4855 c0 -16 2 -22 5 -12 2 9 2 23 0 30 -3 6 -5 -1 -5 -18z"/>
<path d="M2541 4784 c0 -11 3 -14 6 -6 3 7 2 16 -1 19 -3 4 -6 -2 -5 -13z"/>
<path d="M2355 4710 c3 -5 16 -10 28 -9 21 0 21 1 2 9 -28 12 -37 12 -30 0z"/>
<path d="M2360 4680 c0 -5 5 -10 10 -10 6 0 10 5 10 10 0 6 -4 10 -10 10 -5 0
-10 -4 -10 -10z"/>
<path d="M2390 4680 c0 -5 5 -10 10 -10 6 0 10 5 10 10 0 6 -4 10 -10 10 -5 0
-10 -4 -10 -10z"/>
<path d="M2080 4443 c0 -15 5 -35 10 -43 7 -11 10 -6 10 22 0 20 -4 40 -10 43
-6 4 -10 -6 -10 -22z"/>
<path d="M2110 4443 c0 -16 5 -35 10 -43 7 -11 10 -4 10 28 0 23 -4 42 -10 42
-5 0 -10 -12 -10 -27z"/>
<path d="M2120 4294 c0 -14 4 -23 10 -19 6 3 10 15 10 26 0 10 -4 19 -10 19
-5 0 -10 -12 -10 -26z"/>
<path d="M2120 4184 c0 -14 4 -23 10 -19 6 3 10 15 10 26 0 10 -4 19 -10 19
-5 0 -10 -12 -10 -26z"/>
<path d="M2120 4075 c0 -15 4 -24 10 -20 6 3 10 12 10 20 0 8 -4 17 -10 20 -6
4 -10 -5 -10 -20z"/>
<path d="M2122 3370 c0 -14 2 -19 5 -12 2 6 2 18 0 25 -3 6 -5 1 -5 -13z"/>
<path d="M2120 3259 c0 -11 4 -18 10 -14 5 3 7 12 3 20 -7 21 -13 19 -13 -6z"/>
<path d="M2120 3153 c0 -13 5 -23 10 -23 13 0 13 11 0 30 -8 12 -10 11 -10 -7z"/>
<path d="M3164 5600 c0 -63 1 -89 3 -57 2 31 2 83 0 115 -2 31 -3 5 -3 -58z"/>
<path d="M3048 4663 c7 -3 16 -2 19 1 4 3 -2 6 -13 5 -11 0 -14 -3 -6 -6z"/>
<path d="M2080 2676 c0 -19 3 -37 8 -40 4 -2 6 13 4 35 -5 48 -12 51 -12 5z"/>
<path d="M2113 2645 c0 -22 2 -30 4 -17 2 12 2 30 0 40 -3 9 -5 -1 -4 -23z"/>
<path d="M2117 2523 c-11 -10 -8 -43 3 -43 6 0 10 11 10 25 0 26 -2 29 -13 18z"/>
<path d="M2110 2396 c0 -8 5 -18 10 -21 6 -3 10 3 10 14 0 12 -4 21 -10 21 -5
0 -10 -6 -10 -14z"/>
<path d="M2117 2290 c-3 -11 -1 -23 4 -26 5 -3 9 6 9 20 0 31 -6 34 -13 6z"/>
<path d="M6280 7174 c-25 -14 -92 -51 -150 -81 -428 -227 -442 -235 -428 -248
3 -3 17 -1 32 5 24 9 28 7 36 -16 6 -14 10 -29 10 -34 0 -5 6 -11 13 -14 6 -4
2 -4 -10 -2 -12 2 -21 -1 -20 -6 3 -15 -125 -83 -559 -301 -410 -204 -394
-199 -514 -181 -44 6 -58 0 -388 -165 l-342 -171 -2 -1538 c-1 -845 -4 -1478
-5 -1407 -2 88 -8 140 -18 162 -8 17 -15 37 -14 45 0 7 7 -3 14 -22 l13 -35 1
48 c1 26 -3 47 -9 47 -5 0 -11 -6 -11 -12 -1 -7 -5 14 -8 47 -4 33 -4 76 0 95
6 33 7 32 9 -15 1 -30 4 -43 8 -33 4 10 6 38 4 64 -3 34 -8 44 -18 40 -11 -4
-14 5 -14 37 0 33 3 39 11 27 9 -12 9 -11 4 5 -16 42 -18 68 -6 61 6 -4 11 -1
11 8 0 9 -4 16 -10 16 -6 0 -9 81 -9 213 0 287 -12 524 -29 622 -6 32 -12 39
-27 36 -11 -2 -32 -3 -47 -4 -38 0 -45 -26 -58 -207 -13 -183 -18 -1219 -6
-1238 4 -7 2 -19 -5 -28 -7 -8 -12 -39 -12 -67 9 -995 11 -1072 27 -1116 9
-24 20 -49 25 -55 12 -15 19 -57 26 -149 6 -83 18 -127 35 -127 5 0 10 15 10
33 0 61 12 141 25 162 7 11 16 36 19 56 4 20 15 44 26 54 23 21 26 45 7 64
-10 10 -6 11 18 5 25 -5 28 -4 18 7 -19 20 -15 31 6 19 13 -7 22 -7 26 0 3 5
2 10 -4 10 -6 0 -16 10 -22 23 l-12 22 24 -21 c13 -12 33 -27 44 -33 13 -8 14
-11 3 -7 -21 6 -44 -19 -27 -30 7 -4 9 -3 6 3 -13 20 56 11 94 -13 22 -13 39
-27 39 -30 0 -3 -17 5 -37 17 -22 13 -33 17 -27 9 5 -8 9 -25 8 -37 -1 -15 3
-20 13 -16 12 5 12 7 2 14 -8 4 -10 11 -6 15 3 4 14 1 22 -6 10 -9 12 -17 6
-23 -6 -6 -5 -15 5 -24 8 -8 14 -28 14 -44 0 -20 5 -29 16 -29 8 0 12 5 9 10
-3 6 1 10 9 10 9 0 16 -7 16 -15 0 -8 17 -19 43 -25 23 -6 55 -15 71 -20 15
-6 32 -7 37 -4 5 3 9 -2 9 -11 0 -11 5 -15 15 -11 9 3 15 0 15 -9 0 -8 5 -15
12 -15 6 0 26 -12 45 -26 19 -14 37 -23 40 -20 4 3 12 -2 19 -12 7 -10 55 -49
107 -86 53 -37 101 -73 107 -81 7 -8 23 -15 37 -15 13 0 26 -7 30 -16 3 -8 12
-13 19 -10 8 3 11 0 7 -10 -3 -8 1 -14 11 -14 9 0 16 -4 16 -8 0 -5 17 -17 38
-28 57 -31 86 -48 92 -54 3 -3 30 -23 60 -45 30 -22 59 -45 63 -52 4 -7 13
-13 18 -13 6 0 25 -10 42 -22 17 -12 36 -23 42 -24 7 -1 36 -20 66 -43 30 -22
57 -41 62 -41 4 0 7 -6 7 -14 0 -7 14 -19 30 -26 17 -7 30 -16 30 -21 0 -5 12
-15 28 -21 15 -7 35 -19 44 -28 35 -31 47 -40 58 -40 6 0 8 -4 5 -10 -4 -6 1
-7 11 -3 11 4 15 3 11 -4 -7 -11 46 -63 63 -63 4 0 29 -20 55 -45 26 -24 51
-42 56 -40 4 3 14 -3 21 -12 7 -10 34 -29 61 -43 26 -13 47 -29 47 -35 0 -12
53 -55 68 -55 4 0 33 -25 64 -55 31 -30 59 -55 63 -55 3 0 13 -6 20 -13 8 -6
39 -32 70 -57 31 -25 72 -59 90 -76 18 -18 42 -35 54 -39 11 -3 21 -13 21 -21
0 -8 7 -14 15 -14 8 0 31 -18 51 -39 20 -22 51 -50 70 -63 19 -13 34 -28 34
-34 0 -7 11 -19 25 -28 21 -14 68 -16 367 -16 l343 0 -109 71 c-110 71 -146
99 -127 99 14 0 111 -61 141 -88 14 -13 37 -26 53 -29 15 -3 27 -9 27 -14 0
-5 16 -16 36 -24 32 -13 362 -15 2810 -15 l2774 0 0 3600 0 3600 -3147 0
c-2752 -1 -3150 -2 -3167 -15 -11 -8 -24 -15 -30 -15 -5 0 -1 7 10 15 17 13
12 14 -61 15 -68 0 -87 -4 -125 -26z m2833 -354 c3 -11 1 -23 -4 -26 -5 -3 -9
6 -9 20 0 31 6 34 13 6z m-663 -94 c0 -2 -7 -7 -16 -10 -8 -3 -12 -2 -9 4 6
10 25 14 25 6z m-80 -41 c-7 -8 -18 -15 -24 -15 -6 0 -2 7 8 15 25 19 32 19
16 0z m487 -62 c-3 -10 -5 -4 -5 12 0 17 2 24 5 18 2 -7 2 -21 0 -30z m-557
22 c0 -2 -10 -9 -22 -15 -22 -11 -22 -10 -4 4 21 17 26 19 26 11z m247 -47
c-3 -8 -6 -5 -6 6 -1 11 2 17 5 13 3 -3 4 -12 1 -19z m320 -50 c-3 -7 -5 -2
-5 12 0 14 2 19 5 13 2 -7 2 -19 0 -25z m10 -85 c-3 -10 -5 -2 -5 17 0 19 2
27 5 18 2 -10 2 -26 0 -35z m-197 -19 c0 -8 -4 -12 -10 -9 -5 3 -10 10 -10 16
0 5 5 9 10 9 6 0 10 -7 10 -16z m-493 -96 c-3 -7 -5 -2 -5 12 0 14 2 19 5 13
2 -7 2 -19 0 -25z m-222 2 c-3 -5 -12 -10 -18 -10 -7 0 -6 4 3 10 19 12 23 12
15 0z m173 -115 c0 -16 -2 -15 -8 5 -4 14 -8 36 -8 50 0 22 1 22 8 -5 4 -16 8
-39 8 -50z m49 -47 c-2 -18 -4 -4 -4 32 0 36 2 50 4 33 2 -18 2 -48 0 -65z
m-170 10 c-3 -8 -6 -5 -6 6 -1 11 2 17 5 13 3 -3 4 -12 1 -19z m148 -28 c3 -5
1 -10 -4 -10 -6 0 -11 5 -11 10 0 6 2 10 4 10 3 0 8 -4 11 -10z m-658 -193 c9
-9 14 -19 12 -21 -8 -8 -34 19 -47 47 -17 40 -15 58 4 22 8 -16 23 -38 31 -48z
m319 64 c-3 -5 -15 -7 -26 -4 -28 7 -25 13 6 13 14 0 23 -4 20 -9z m-1679
-218 c-3 -10 -5 -2 -5 17 0 19 2 27 5 18 2 -10 2 -26 0 -35z m0 -120 c-2 -16
-4 -3 -4 27 0 30 2 43 4 28 2 -16 2 -40 0 -55z m1963 -203 c0 -5 -5 -10 -11
-10 -5 0 -7 5 -4 10 3 6 8 10 11 10 2 0 4 -4 4 -10z m-235 -59 c3 -5 1 -12 -5
-16 -5 -3 -10 1 -10 9 0 18 6 21 15 7z m-298 -313 c-2 -18 -4 -4 -4 32 0 36 2
50 4 33 2 -18 2 -48 0 -65z m-2807 12 c0 -5 -7 -10 -15 -10 -8 0 -15 5 -15 10
0 6 7 10 15 10 8 0 15 -4 15 -10z m-390 -30 c0 -5 -4 -10 -10 -10 -5 0 -10 5
-10 10 0 6 5 10 10 10 6 0 10 -4 10 -10z m275 0 c3 -5 1 -10 -4 -10 -6 0 -11
5 -11 10 0 6 2 10 4 10 3 0 8 -4 11 -10z m6140 0 c3 -5 1 -10 -4 -10 -6 0 -11
5 -11 10 0 6 2 10 4 10 3 0 8 -4 11 -10z m-6360 -77 c-3 -16 -11 -32 -16 -37
-13 -14 -23 0 -14 21 8 16 10 24 14 38 0 3 6 5 12 5 7 0 9 -10 4 -27z m4880
-72 c-3 -11 -2 -22 3 -25 6 -3 10 -36 11 -72 1 -77 -7 -83 -10 -9 -1 28 -6 60
-10 72 -5 13 -6 30 -3 38 9 22 16 18 9 -4z m-778 -93 c-3 -8 -6 -5 -6 6 -1 11
2 17 5 13 3 -3 4 -12 1 -19z m623 2 c0 -5 -2 -10 -4 -10 -3 0 -8 5 -11 10 -3
6 -1 10 4 10 6 0 11 -4 11 -10z m-838 -95 c-2 -14 -6 -25 -8 -25 -2 0 -4 11
-4 25 0 14 4 25 9 25 4 0 6 -11 3 -25z m1005 -17 c-3 -8 -6 -5 -6 6 -1 11 2
17 5 13 3 -3 4 -12 1 -19z m-1271 -63 c4 -14 4 -29 0 -32 -3 -4 -6 3 -6 13 0
11 -5 25 -12 32 -9 9 -9 12 0 12 6 0 14 -11 18 -25z m-3416 -50 c0 -14 -4 -25
-9 -25 -12 0 -23 29 -15 41 10 18 24 9 24 -16z m220 -191 c0 -8 -5 -12 -10 -9
-6 4 -8 11 -5 16 9 14 15 11 15 -7z m135 -184 c3 -5 -1 -10 -10 -10 -9 0 -13
5 -10 10 3 6 8 10 10 10 2 0 7 -4 10 -10z m85 -4 c0 -3 -4 -8 -10 -11 -5 -3
-10 -1 -10 4 0 6 5 11 10 11 6 0 10 -2 10 -4z m-290 -16 c12 -8 9 -10 -12 -10
-16 0 -28 5 -28 10 0 13 20 13 40 0z m240 -5 c0 -8 -4 -15 -10 -15 -5 0 -10 7
-10 15 0 8 5 15 10 15 6 0 10 -7 10 -15z m-40 -39 c0 -3 -4 -8 -10 -11 -5 -3
-10 -1 -10 4 0 6 5 11 10 11 6 0 10 -2 10 -4z m-70 -27 c0 -5 -4 -9 -10 -9 -5
0 -10 7 -10 16 0 8 5 12 10 9 6 -3 10 -10 10 -16z m-157 -76 c-3 -7 -9 -10
-14 -7 -11 6 -12 38 -2 48 9 9 22 -25 16 -41z m227 17 c0 -5 -4 -10 -10 -10
-5 0 -10 5 -10 10 0 6 5 10 10 10 6 0 10 -4 10 -10z m3330 -35 c0 -5 -5 -3
-10 5 -5 8 -10 20 -10 25 0 6 5 3 10 -5 5 -8 10 -19 10 -25z m-2280 10 c0 -8
-4 -15 -10 -15 -5 0 -10 7 -10 15 0 8 5 15 10 15 6 0 10 -7 10 -15z m2607 -37
c-3 -7 -5 -2 -5 12 0 14 2 19 5 13 2 -7 2 -19 0 -25z m580 10 c-3 -8 -6 -5 -6
6 -1 11 2 17 5 13 3 -3 4 -12 1 -19z m960 -65 c-2 -16 -4 -3 -4 27 0 30 2 43
4 28 2 -16 2 -40 0 -55z m-5337 12 c0 -8 -4 -15 -10 -15 -5 0 -7 7 -4 15 4 8
8 15 10 15 2 0 4 -7 4 -15z m3497 -7 c-3 -8 -6 -5 -6 6 -1 11 2 17 5 13 3 -3
4 -12 1 -19z m110 -4 c-3 -3 -12 -4 -19 -1 -8 3 -5 6 6 6 11 1 17 -2 13 -5z
m-554 -11 c-18 -2 -48 -2 -65 0 -18 2 -4 4 32 4 36 0 50 -2 33 -4z m989 -62
c10 -13 10 -14 -2 -3 -8 6 -22 12 -31 12 -10 0 -20 4 -23 9 -10 15 43 -1 56
-18z m-3667 -11 c-3 -5 -19 -10 -34 -10 -15 0 -31 -4 -36 -8 -19 -17 -191 -47
-265 -46 -92 0 -161 12 -140 24 8 4 44 3 80 -2 69 -10 177 -3 220 14 14 6 59
16 100 23 41 7 76 13 78 14 2 0 0 -3 -3 -9z m739 -30 c75 -11 89 -17 81 -30
-4 -6 -13 -6 -23 0 -9 6 -51 16 -92 24 -88 16 -66 20 34 6z m1946 -30 c-20
-13 -43 -13 -35 0 3 6 16 10 28 10 18 0 19 -2 7 -10z m-1740 -37 c179 -69 390
-176 376 -191 -3 -2 -17 4 -33 15 -36 24 -168 88 -303 146 -58 25 -116 50
-130 56 l-25 11 25 -6 c14 -3 54 -17 90 -31z m-133 -45 c-2 -13 -4 -3 -4 22 0
25 2 35 4 23 2 -13 2 -33 0 -45z m-1129 -69 c-2 -6 -8 -10 -13 -10 -5 0 -11 4
-13 10 -2 6 4 11 13 11 9 0 15 -5 13 -11z m163 -116 c-12 -20 -14 -14 -5 12 4
9 9 14 11 11 3 -2 0 -13 -6 -23z m124 6 c11 -17 -1 -21 -15 -4 -8 9 -8 15 -2
15 6 0 14 -5 17 -11z m1446 -16 c13 -17 13 -17 -6 -3 -11 8 -22 16 -24 17 -2
2 0 3 6 3 6 0 17 -8 24 -17z m-1024 -25 c-3 -8 -6 -5 -6 6 -1 11 2 17 5 13 3
-3 4 -12 1 -19z m550 -30 c-3 -8 -6 -5 -6 6 -1 11 2 17 5 13 3 -3 4 -12 1 -19z
m-839 -26 c2 -7 -3 -12 -12 -12 -9 0 -16 7 -16 16 0 17 22 14 28 -4z m-98 -17
c0 -8 -4 -15 -10 -15 -5 0 -7 7 -4 15 4 8 8 15 10 15 2 0 4 -7 4 -15z m900 -9
c0 -9 -40 -13 -46 -5 -3 5 6 9 20 9 14 0 26 -2 26 -4z m-1263 -122 c-1 -1 -24
4 -52 11 -34 8 -43 14 -30 17 17 4 90 -21 82 -28z m4160 -40 c-3 -3 -12 -4
-19 -1 -8 3 -5 6 6 6 11 1 17 -2 13 -5z m200 -10 c-3 -3 -12 -4 -19 -1 -8 3
-5 6 6 6 11 1 17 -2 13 -5z m-760 -56 c-3 -8 -6 -5 -6 6 -1 11 2 17 5 13 3 -3
4 -12 1 -19z m-649 -25 c-10 -2 -28 -2 -40 0 -13 2 -5 4 17 4 22 1 32 -1 23
-4z m-8 -93 c0 -5 -9 -10 -21 -10 -11 0 -17 5 -14 10 3 6 13 10 21 10 8 0 14
-4 14 -10z m-3873 -107 c-3 -10 -5 -4 -5 12 0 17 2 24 5 18 2 -7 2 -21 0 -30z
m892 -39 c19 -8 31 -17 28 -20 -8 -8 -107 28 -107 39 0 9 24 3 79 -19z m3424
-51 c-13 -2 -35 -2 -50 0 -16 2 -5 4 22 4 28 0 40 -2 28 -4z m167 -18 l65 -14
-55 6 c-30 3 -75 9 -100 13 -41 7 -42 7 -10 8 19 1 64 -5 100 -13z m-4463
-653 c-1 -114 -2 -20 -2 208 0 228 1 322 2 207 2 -114 2 -300 0 -415z m1691
539 c3 -8 -1 -12 -9 -9 -7 2 -15 10 -17 17 -3 8 1 12 9 9 7 -2 15 -10 17 -17z
m2745 2 c-7 -2 -19 -2 -25 0 -7 3 -2 5 12 5 14 0 19 -2 13 -5z m-1086 -9 c-3
-3 -12 -4 -19 -1 -8 3 -5 6 6 6 11 1 17 -2 13 -5z m-2305 -99 c60 -15 233 -94
208 -95 -8 0 -40 12 -70 26 -67 31 -122 50 -172 59 -21 4 -38 11 -38 16 0 12
6 11 72 -6z m-155 -357 c-3 -8 -6 -5 -6 6 -1 11 2 17 5 13 3 -3 4 -12 1 -19z
m-47 -298 c13 -11 19 -20 14 -20 -13 1 -61 40 -48 40 6 0 21 -9 34 -20z m-843
-57 c-2 -16 -4 -5 -4 22 0 28 2 40 4 28 2 -13 2 -35 0 -50z m4520 41 c-3 -3
-12 -4 -19 -1 -8 3 -5 6 6 6 11 1 17 -2 13 -5z m-4208 -106 c2 -5 -24 9 -57
31 -33 23 -65 41 -71 41 -6 0 -11 7 -11 15 0 10 22 0 68 -31 37 -26 69 -51 71
-56z m586 82 c3 -5 2 -10 -4 -10 -5 0 -13 5 -16 10 -3 6 -2 10 4 10 5 0 13 -4
16 -10z m35 -31 c0 -6 -4 -7 -10 -4 -5 3 -10 11 -10 16 0 6 5 7 10 4 6 -3 10
-11 10 -16z m-501 -120 c55 -33 103 -64 106 -70 4 -5 17 -9 31 -9 20 0 25 -4
22 -22 -2 -15 2 -23 12 -24 34 -2 40 -4 40 -14 0 -6 -10 -10 -22 -9 -13 1 -34
1 -48 0 -25 -2 -25 -2 -5 -17 11 -8 30 -13 43 -11 18 3 20 2 11 -9 -9 -11 -5
-16 16 -24 14 -5 29 -10 31 -10 3 0 12 -7 20 -15 9 -8 11 -15 5 -15 -6 0 -11
-7 -11 -16 0 -13 -5 -12 -29 5 -16 12 -42 21 -58 21 -24 1 -92 29 -71 30 4 0
1 20 -6 44 -13 42 -12 45 6 49 40 11 8 41 -134 127 -61 36 -78 50 -63 50 2 0
49 -27 104 -61z m340 -154 c44 -30 83 -55 87 -55 3 0 27 -15 53 -33 25 -19 73
-49 106 -67 33 -19 76 -45 95 -57 19 -13 43 -29 54 -36 10 -6 25 -19 34 -27
14 -14 14 -15 0 -18 -9 -2 -18 -13 -20 -26 -4 -21 -1 -23 43 -22 26 0 43 4 36
8 -6 3 -15 4 -19 2 -4 -3 -8 4 -8 16 0 18 3 19 23 9 12 -6 36 -21 52 -33 17
-12 46 -28 65 -36 19 -8 44 -22 55 -32 37 -33 108 -83 159 -111 28 -16 74 -44
101 -61 28 -18 57 -36 65 -39 24 -11 53 -30 88 -59 18 -16 37 -28 42 -28 5 0
14 -9 20 -21 10 -19 10 -20 -9 -10 -31 17 -32 13 -3 -18 15 -15 30 -27 33 -25
12 6 37 -31 44 -66 5 -19 10 -29 12 -22 3 6 14 12 25 12 13 0 18 -5 15 -13 -3
-9 11 -21 39 -33 42 -18 55 -36 35 -49 -5 -3 -24 8 -43 25 -24 22 -42 30 -68
29 -19 0 -72 1 -117 3 -44 2 -80 1 -78 -2 2 -3 -1 -12 -6 -20 -8 -13 -12 -12
-24 4 -8 11 -15 29 -15 41 0 12 -12 28 -29 38 -37 22 -41 21 -41 -3 0 -11 6
-20 14 -20 8 0 17 -7 20 -16 3 -8 10 -13 15 -9 9 5 31 -53 31 -82 0 -6 6 -13
13 -16 6 -2 8 -8 4 -13 -4 -5 -11 -4 -15 2 -4 6 -14 14 -22 18 -26 12 -57 31
-74 45 -9 7 -16 10 -16 5 0 -4 -8 1 -19 12 -25 25 -60 54 -67 54 -13 0 -94 67
-99 83 -4 9 -13 17 -22 17 -24 0 -9 25 18 28 13 2 29 10 35 18 10 12 13 10 18
-11 9 -37 29 -32 21 5 -4 18 -2 36 4 44 8 10 3 15 -25 24 -30 9 -33 8 -23 -4
14 -17 8 -18 -26 -2 -35 16 -31 30 8 27 17 -1 41 -1 52 0 l20 2 -20 9 c-18 8
-17 9 8 9 37 1 25 21 -13 21 -16 0 -32 -4 -35 -10 -3 -5 -11 -10 -17 -10 -18
0 12 28 35 33 12 2 -4 5 -36 6 -50 1 -60 4 -64 21 -6 22 -6 22 -27 14 -8 -3
-13 -11 -10 -19 3 -7 -2 -15 -10 -18 -10 -4 -13 -1 -9 9 3 10 -4 16 -26 20
-17 4 -35 12 -41 19 -6 7 -19 11 -30 8 -11 -3 -22 2 -29 15 -12 23 -104 70
-146 74 -18 2 -29 8 -27 16 1 6 -3 12 -9 12 -12 0 -29 17 -44 44 -6 10 -15 18
-20 18 -6 0 -14 6 -18 14 -4 8 -16 14 -25 14 -19 0 -42 18 -42 33 0 9 67 5
140 -9 35 -7 35 -7 16 14 -10 12 -34 26 -52 32 -19 7 -34 18 -34 26 0 17 -12
18 -29 2 -8 -8 -11 -8 -8 -2 4 7 -4 19 -17 28 -17 11 -23 21 -19 37 4 14 8 17
13 8 5 -6 15 -9 23 -6 10 4 30 -8 53 -29 39 -35 59 -44 52 -22 -5 15 -89 76
-105 77 -7 1 -13 5 -13 9 0 13 -52 36 -75 34 l-20 -2 20 9 c12 6 14 10 6 10
-8 1 -28 11 -45 24 -48 34 -112 67 -119 60 -10 -9 -38 18 -31 29 11 17 50 0
133 -57z m-269 5 c0 -5 -2 -10 -4 -10 -3 0 -8 5 -11 10 -3 6 -1 10 4 10 6 0
11 -4 11 -10z m230 -20 c13 -8 12 -10 -3 -10 -14 0 -17 -5 -12 -19 5 -18 3
-18 -19 -8 -27 13 -36 30 -11 21 9 -4 15 0 15 10 0 18 8 20 30 6z m45 -60 c3
-5 -3 -10 -14 -10 -12 0 -21 5 -21 10 0 6 6 10 14 10 8 0 18 -4 21 -10z m-120
-58 c-3 -3 -11 0 -18 7 -9 10 -8 11 6 5 10 -3 15 -9 12 -12z m529 -18 c20 -8
21 -24 2 -24 -8 0 -16 7 -20 15 -6 17 -4 18 18 9z m215 -440 c2 -2 2 -7 -2
-10 -8 -9 -47 6 -47 17 0 9 37 3 49 -7z m746 -294 c3 -6 -1 -7 -9 -4 -18 7
-21 14 -7 14 6 0 13 -4 16 -10z m68 -35 c20 -11 37 -22 37 -26 0 -4 8 -10 18
-13 27 -10 120 -71 132 -87 3 -3 31 -22 63 -40 100 -58 154 -94 197 -128 14
-11 30 -21 36 -21 17 0 104 -59 104 -70 0 -11 -7 -7 -220 130 -73 47 -158 101
-189 121 -127 80 -231 151 -231 155 0 6 -1 6 53 -21z m-223 -25 c-12 -22 -25
-26 -35 -10 -9 15 4 30 26 30 17 0 18 -3 9 -20z m203 -37 c9 -4 33 -25 56 -45
22 -21 44 -38 48 -38 4 0 30 -15 58 -33 161 -108 193 -127 206 -127 8 0 31
-14 52 -31 22 -18 49 -31 67 -31 16 -1 30 -5 30 -10 0 -4 6 -8 14 -8 8 0 16
-10 19 -22 4 -13 22 -32 42 -42 19 -11 35 -23 35 -27 0 -4 10 -11 23 -14 59
-17 130 -65 96 -65 -5 0 -8 -4 -4 -9 9 -16 -33 -4 -73 20 -20 13 -41 29 -45
36 -4 7 -15 13 -22 13 -8 0 -15 4 -15 9 0 10 -38 24 -59 21 -7 -1 -10 3 -7 8
7 11 -15 22 -47 23 -12 0 -16 3 -9 6 17 7 15 23 -3 23 -8 0 -26 12 -41 28 -15
15 -23 21 -19 13 12 -22 -54 30 -70 56 -9 13 -21 23 -27 23 -6 0 -26 11 -44
25 -18 14 -37 25 -42 25 -6 0 -12 4 -14 8 -1 4 -19 18 -39 30 -28 17 -45 21
-76 16 -42 -6 -67 9 -36 20 14 6 12 12 -17 36 -19 16 -49 37 -67 47 -43 23
-52 44 -13 33 16 -4 35 -12 43 -17z m-158 7 c3 -5 1 -10 -4 -10 -6 0 -11 5
-11 10 0 6 2 10 4 10 3 0 8 -4 11 -10z m-125 -20 c0 -5 -4 -10 -10 -10 -5 0
-10 5 -10 10 0 6 5 10 10 10 6 0 10 -4 10 -10z m-53 -30 c5 -18 22 -24 58 -22
12 1 40 -35 49 -66 7 -22 6 -22 -14 -10 -12 7 -38 28 -56 46 -19 17 -39 32
-44 32 -5 0 -14 9 -20 20 -9 16 -8 20 6 20 9 0 18 -9 21 -20z m110 4 c-3 -3
-12 -4 -19 -1 -8 3 -5 6 6 6 11 1 17 -2 13 -5z m46 -65 c26 2 39 0 34 -6 -4
-3 3 -11 15 -17 11 -6 26 -19 32 -29 9 -15 7 -21 -8 -33 -18 -13 -23 -11 -48
13 -15 15 -28 35 -28 46 0 16 -3 17 -15 7 -13 -11 -15 -8 -15 17 0 37 13 52
20 23 3 -12 8 -21 13 -21z m1372 -587 c-6 -7 -35 18 -35 31 0 5 9 2 20 -8 11
-10 18 -20 15 -23z"/>
<path d="M4500 1640 c0 -5 5 -10 10 -10 6 0 10 5 10 10 0 6 -4 10 -10 10 -5 0
-10 -4 -10 -10z"/>
<path d="M5006 1475 c4 -8 12 -15 20 -15 19 0 18 16 -2 24 -22 9 -24 8 -18 -9z"/>
<path d="M5058 1443 c7 -3 16 -2 19 1 4 3 -2 6 -13 5 -11 0 -14 -3 -6 -6z"/>
<path d="M5025 1390 c3 -5 13 -10 21 -10 8 0 12 5 9 10 -3 6 -13 10 -21 10 -8
0 -12 -4 -9 -10z"/>
<path d="M4968 1373 c7 -3 16 -2 19 1 4 3 -2 6 -13 5 -11 0 -14 -3 -6 -6z"/>
<path d="M5033 1343 c9 -2 25 -2 35 0 9 3 1 5 -18 5 -19 0 -27 -2 -17 -5z"/>
<path d="M5008 1308 c8 -8 23 -8 54 -1 l43 11 -54 1 c-42 1 -52 -2 -43 -11z"/>
<path d="M5270 1301 c0 -10 8 -22 18 -26 16 -6 16 -7 0 -16 -12 -7 -24 -6 -37
1 -24 12 -31 13 -31 1 0 -4 21 -16 47 -26 35 -14 50 -15 64 -7 13 9 19 8 23
-3 3 -8 0 -15 -6 -15 -6 0 -3 -9 7 -21 15 -16 26 -19 57 -14 32 6 42 3 70 -24
24 -22 35 -27 45 -19 17 14 18 -23 1 -40 -9 -9 -8 -12 4 -12 9 0 18 6 20 12 3
9 9 8 22 -4 14 -15 20 -15 36 -5 21 12 27 27 12 27 -5 0 -29 13 -53 30 -24 16
-48 30 -54 30 -5 0 -3 -5 5 -10 13 -8 12 -10 -2 -10 -11 0 -18 7 -18 18 0 14
-81 74 -125 91 -5 2 -29 17 -52 32 -49 34 -53 35 -53 10z"/>
<path d="M5520 1016 c0 -19 -5 -38 -10 -41 -11 -7 25 -65 41 -65 15 0 10 37
-6 44 -21 8 -19 26 4 26 11 0 27 3 36 6 13 5 10 12 -16 35 -42 37 -49 36 -49
-5z"/>
<path d="M5706 1036 c3 -8 14 -18 25 -21 10 -4 19 -10 19 -15 0 -10 39 -20 44
-11 3 4 -18 19 -45 34 -34 20 -47 23 -43 13z"/>
<path d="M5574 885 c4 -17 13 -36 20 -43 11 -12 13 -9 8 14 -3 16 -12 35 -20
44 -14 13 -15 12 -8 -15z"/>
<path d="M6010 555 c0 -8 5 -15 10 -15 6 0 10 7 10 15 0 8 -4 15 -10 15 -5 0
-10 -7 -10 -15z"/>
<path d="M23 7090 c-18 -14 -23 -29 -23 -64 0 -43 2 -46 19 -37 14 8 20 25 23
63 2 29 4 54 4 55 -1 1 -11 -7 -23 -17z"/>
<path d="M0 6919 c0 -34 3 -39 23 -39 19 0 23 5 24 34 0 28 -3 35 -23 39 -22
4 -24 1 -24 -34z"/>
<path d="M62 6900 c0 -14 2 -19 5 -12 2 6 2 18 0 25 -3 6 -5 1 -5 -13z"/>
<path d="M5745 6840 c-3 -5 -1 -10 4 -10 6 0 11 5 11 10 0 6 -2 10 -4 10 -3 0
-8 -4 -11 -10z"/>
<path d="M0 6814 c0 -16 6 -24 18 -24 13 0 14 2 3 9 -11 7 -10 10 4 18 16 9
15 11 -4 16 -17 4 -21 1 -21 -19z"/>
<path d="M9 6739 c-10 -6 -7 -9 14 -9 29 0 35 5 14 13 -8 3 -20 1 -28 -4z"/>
<path d="M2615 6520 c3 -5 16 -10 28 -9 21 0 21 1 2 9 -28 12 -37 12 -30 0z"/>
<path d="M2698 6503 c12 -2 30 -2 40 0 9 3 -1 5 -23 4 -22 0 -30 -2 -17 -4z"/>
<path d="M0 6377 l0 -78 23 26 22 27 140 -16 c172 -19 411 -36 790 -56 187
-10 768 -53 863 -65 l43 -5 -3 33 -3 32 -140 12 c-189 15 -359 29 -675 53
-146 12 -341 28 -435 36 -93 8 -255 20 -359 26 -164 10 -189 14 -193 29 -3 11
-17 18 -39 21 l-34 4 0 -79z"/>
<path d="M138 6453 c7 -3 16 -2 19 1 4 3 -2 6 -13 5 -11 0 -14 -3 -6 -6z"/>
<path d="M2881 6416 c2 -2 21 -6 42 -10 27 -5 37 -4 32 3 -3 6 -22 11 -42 11
-20 0 -34 -2 -32 -4z"/>
<path d="M1788 6313 c6 -2 18 -2 25 0 6 3 1 5 -13 5 -14 0 -19 -2 -12 -5z"/>
<path d="M3340 6236 c0 -2 7 -6 15 -10 8 -3 15 -1 15 4 0 6 -7 10 -15 10 -8 0
-15 -2 -15 -4z"/>
<path d="M3261 5764 c0 -11 3 -14 6 -6 3 7 2 16 -1 19 -3 4 -6 -2 -5 -13z"/>
<path d="M3263 5615 c0 -44 2 -61 4 -37 2 23 2 59 0 80 -2 20 -4 1 -4 -43z"/>
<path d="M1733 5089 c-6 -6 -22 -12 -36 -13 -14 -2 -33 -10 -42 -20 -9 -9 -22
-16 -29 -16 -7 0 -21 -9 -31 -20 -10 -11 -26 -20 -35 -20 -15 0 -34 -12 -80
-52 -8 -8 -26 -19 -40 -26 -14 -7 -30 -23 -35 -35 -8 -16 -18 -21 -38 -20 -24
2 -27 0 -17 -13 10 -11 8 -14 -11 -14 -33 0 -53 -15 -44 -30 6 -10 2 -12 -13
-8 -12 4 -25 2 -28 -3 -3 -5 2 -9 10 -9 9 0 16 -7 16 -16 0 -12 -7 -14 -30 -9
-23 5 -30 3 -30 -9 0 -15 -37 -32 -47 -22 -4 3 1 6 10 6 10 0 17 5 17 10 0 14
-11 12 -29 -4 -9 -8 -25 -16 -36 -18 -26 -4 -48 -25 -40 -38 3 -5 1 -10 -4
-10 -6 0 -11 5 -11 11 0 8 -5 7 -15 -1 -9 -7 -14 -19 -11 -27 3 -7 1 -13 -3
-13 -5 0 -11 5 -13 12 -8 22 -30 -4 -24 -28 5 -19 -1 -27 -39 -50 -25 -14 -48
-24 -51 -21 -4 3 -17 2 -30 -3 -13 -5 -23 -6 -23 -2 3 20 -2 33 -11 27 -6 -4
-8 -10 -6 -14 3 -3 -20 -22 -50 -41 -30 -20 -54 -42 -54 -52 0 -23 -20 -34
-32 -17 -7 10 -8 8 -3 -7 5 -19 2 -21 -22 -17 -27 5 -27 5 -8 -11 16 -12 17
-15 5 -16 -9 0 -21 5 -27 11 -14 14 -53 -5 -53 -26 0 -8 -4 -15 -10 -15 -5 0
-10 -6 -10 -13 0 -15 -66 -59 -145 -98 -27 -13 -52 -27 -55 -30 -6 -7 -47 -29
-54 -29 -16 0 10 30 35 40 31 13 41 34 12 23 -36 -13 -84 -51 -74 -58 6 -3 11
-9 11 -13 0 -9 -63 -7 -78 2 -8 5 -10 2 -6 -9 4 -11 -3 -18 -25 -26 -17 -6
-31 -15 -31 -21 0 -5 -10 -6 -22 -3 -16 6 -20 4 -15 -8 4 -10 -6 -18 -34 -27
-21 -7 -39 -17 -39 -22 0 -5 -4 -6 -10 -3 -5 3 -10 2 -10 -4 0 -5 -10 -13 -21
-16 -17 -6 -18 -9 -8 -16 11 -6 10 -9 -4 -15 -14 -5 -17 -19 -17 -75 0 -63 10
-88 23 -56 3 7 23 19 46 27 23 7 39 15 36 18 -7 7 35 36 83 57 23 10 40 20 37
23 -9 9 45 43 56 36 8 -4 9 -3 5 4 -4 7 -2 12 4 12 6 0 20 9 32 20 11 10 34
22 50 25 20 5 28 11 24 21 -3 8 -2 13 3 10 4 -3 30 9 57 26 27 18 55 31 63 29
8 -1 10 2 5 10 -5 9 -2 10 9 6 10 -4 18 0 21 11 7 22 69 59 73 45 2 -6 19 5
37 23 19 19 43 34 55 34 12 0 20 6 18 13 -1 6 3 11 10 10 7 -2 29 13 49 32 20
19 41 35 46 35 11 0 112 71 116 82 2 4 8 8 14 8 5 0 21 9 35 20 14 11 34 20
44 20 11 0 19 3 19 8 0 4 14 13 31 21 17 7 28 19 25 26 -3 8 2 11 14 8 11 -3
26 3 36 16 10 11 21 18 26 15 4 -3 8 3 9 13 0 10 3 13 6 6 2 -7 9 -13 14 -13
12 0 55 43 52 52 -2 4 5 4 14 1 10 -4 14 -2 10 4 -4 6 2 13 13 16 11 3 20 12
20 21 0 12 -6 15 -25 10 -19 -5 -25 -2 -25 9 0 22 18 31 35 17 10 -8 15 -8 20
1 6 8 10 7 17 -5 5 -9 14 -16 20 -16 6 0 8 3 5 7 -10 10 13 33 33 33 24 0 46
26 28 33 -7 3 -1 6 15 6 15 1 27 4 27 9 0 4 24 20 53 36 59 34 92 62 92 79 0
7 15 13 33 15 18 2 32 9 32 16 0 8 10 16 23 20 17 5 19 8 8 15 -11 7 -9 13 8
30 11 11 21 23 21 26 0 9 -16 5 -27 -6z m-383 -279 c-19 -12 -30 -12 -30 -1 0
10 31 20 40 14 2 -2 -2 -8 -10 -13z m-185 -110 c3 -5 -1 -10 -9 -10 -9 0 -16
5 -16 10 0 6 4 10 9 10 6 0 13 -4 16 -10z m-375 -210 c-8 -5 -17 -7 -19 -4 -3
3 1 9 9 14 8 5 17 7 19 4 3 -3 -1 -9 -9 -14z m57 14 c-3 -3 -12 -4 -19 -1 -8
3 -5 6 6 6 11 1 17 -2 13 -5z m-187 -98 c0 -3 -4 -8 -10 -11 -5 -3 -10 -1 -10
4 0 6 5 11 10 11 6 0 10 -2 10 -4z m-355 -237 c-3 -4 -12 -6 -20 -3 -8 4 -13
10 -10 15 3 4 12 6 20 3 8 -4 13 -10 10 -15z m-105 -49 c0 -5 -8 -10 -17 -10
-15 0 -16 2 -3 10 19 12 20 12 20 0z"/>
<path d="M934 4606 c-3 -8 -13 -12 -24 -9 -10 3 -21 0 -24 -6 -10 -15 24 -14
57 2 30 13 35 27 12 27 -9 0 -18 -6 -21 -14z"/>
<path d="M418 4283 c7 -3 16 -2 19 1 4 3 -2 6 -13 5 -11 0 -14 -3 -6 -6z"/>
<path d="M590 4259 c0 -5 5 -7 10 -4 6 3 10 8 10 11 0 2 -4 4 -10 4 -5 0 -10
-5 -10 -11z"/>
<path d="M3942 3800 c0 -19 2 -27 5 -17 2 9 2 25 0 35 -3 9 -5 1 -5 -18z"/>
<path d="M3941 3554 c0 -11 3 -14 6 -6 3 7 2 16 -1 19 -3 4 -6 -2 -5 -13z"/>
<path d="M4 3260 c0 -140 2 -198 3 -127 2 70 2 184 0 255 -1 70 -3 12 -3 -128z"/>
<path d="M3941 3304 c0 -11 3 -14 6 -6 3 7 2 16 -1 19 -3 4 -6 -2 -5 -13z"/>
<path d="M1445 3034 c-225 -7 -630 -20 -900 -29 -269 -8 -502 -15 -517 -15
-23 0 -28 -4 -28 -25 l0 -25 113 5 c61 3 267 10 457 15 190 6 410 13 490 15
321 12 738 25 788 25 49 0 52 2 52 25 0 20 -5 25 -22 24 -13 -1 -207 -8 -433
-15z"/>
<path d="M1555 2973 c-115 -7 -1311 -43 -1427 -43 l-128 0 0 -30 c0 -19 4 -28
13 -25 6 2 264 11 572 20 308 9 625 20 705 25 80 5 210 10 290 11 155 1 219 9
187 22 -11 4 -23 4 -28 1 -6 -3 -22 -3 -37 1 l-27 8 25 7 c26 8 -42 10 -145 3z
m112 -9 c-3 -3 -12 -4 -19 -1 -8 3 -5 6 6 6 11 1 17 -2 13 -5z"/>
<path d="M1625 2883 c-76 -4 -787 -30 -1210 -43 -374 -13 -409 -16 -401 -36 3
-8 1 -14 -4 -14 -6 0 -9 -58 -9 -147 1 -82 5 -132 8 -113 5 25 10 -7 19 -110
8 -80 18 -146 23 -148 5 -2 9 -10 9 -19 0 -12 2 -12 14 -1 8 8 16 23 19 34 2
10 5 -72 6 -182 1 -223 4 -214 -65 -214 l-34 0 2 -72 c2 -70 2 -71 5 -15 l4
57 34 0 35 0 0 -50 c0 -54 1 -55 32 -39 19 10 210 35 343 44 135 9 224 15 290
20 174 13 205 15 290 20 119 6 255 17 280 21 11 2 92 8 180 14 176 11 260 17
348 26 52 5 57 8 57 30 0 28 11 27 -175 14 -346 -26 -577 -41 -940 -65 -214
-14 -446 -29 -514 -35 -69 -6 -128 -7 -132 -3 -4 5 -10 166 -13 358 -4 193
-11 377 -15 409 -4 32 -6 68 -3 81 5 30 -32 27 942 65 140 5 293 12 340 15
113 8 196 12 368 21 l142 7 0 39 0 38 -107 -2 c-60 -1 -135 -3 -168 -5z"/>
<path d="M2060 1774 c0 -11 5 -14 16 -10 9 3 23 6 32 6 15 0 15 2 2 10 -23 15
-50 12 -50 -6z"/>
<path d="M1740 1767 c0 -5 6 -5 13 -1 8 5 9 4 2 -4 -9 -10 -198 -28 -470 -46
-56 -4 -62 -3 -30 4 22 5 65 9 95 10 30 1 64 5 75 10 12 5 -10 6 -55 4 -123
-7 -930 -63 -1135 -79 -104 -8 -200 -15 -212 -15 -17 0 -23 -6 -23 -21 0 -19
4 -20 53 -14 28 3 151 12 272 20 235 15 926 66 1239 90 104 8 192 12 195 9 15
-14 -43 -22 -317 -43 -656 -49 -1242 -92 -1339 -98 -100 -6 -103 -7 -103 -29
0 -22 4 -24 48 -24 26 0 162 9 302 20 505 38 671 50 1030 75 201 14 400 28
443 31 l77 7 0 33 c0 31 -3 34 -30 34 -26 0 -34 7 -32 30 0 3 -22 5 -49 5 -27
0 -49 -4 -49 -8z m-590 -57 c-8 -5 -33 -9 -55 -9 l-40 2 35 7 c19 4 44 8 55 9
16 0 17 -1 5 -9z m-117 -7 c-7 -2 -19 -2 -25 0 -7 3 -2 5 12 5 14 0 19 -2 13
-5z m-105 -10 c-10 -2 -26 -2 -35 0 -10 3 -2 5 17 5 19 0 27 -2 18 -5z m755 0
c-7 -2 -19 -2 -25 0 -7 3 -2 5 12 5 14 0 19 -2 13 -5z m-850 -10 c-7 -2 -19
-2 -25 0 -7 3 -2 5 12 5 14 0 19 -2 13 -5z m775 0 c-10 -2 -26 -2 -35 0 -10 3
-2 5 17 5 19 0 27 -2 18 -5z m-135 -10 c-7 -2 -19 -2 -25 0 -7 3 -2 5 12 5 14
0 19 -2 13 -5z m-120 -10 c-7 -2 -21 -2 -30 0 -10 3 -4 5 12 5 17 0 24 -2 18
-5z m-1093 -7 c0 -2 -7 -7 -16 -10 -8 -3 -12 -2 -9 4 6 10 25 14 25 6z m963
-3 c-13 -2 -33 -2 -45 0 -13 2 -3 4 22 4 25 0 35 -2 23 -4z m-1024 -7 c-2 -2
-26 -6 -54 -10 -34 -4 -45 -3 -35 4 14 9 99 15 89 6z m838 -2 c-3 -3 -12 -4
-19 -1 -8 3 -5 6 6 6 11 1 17 -2 13 -5z m-84 -11 c-7 -2 -19 -2 -25 0 -7 3 -2
5 12 5 14 0 19 -2 13 -5z m-540 -40 c-7 -2 -19 -2 -25 0 -7 3 -2 5 12 5 14 0
19 -2 13 -5z m-165 -10 c-10 -2 -26 -2 -35 0 -10 3 -2 5 17 5 19 0 27 -2 18
-5z"/>
<path d="M1543 1761 c-45 -4 -85 -10 -89 -14 -7 -7 109 0 211 13 l60 7 -50 0
c-27 0 -87 -3 -132 -6z"/>
<path d="M366 1715 c-3 -8 -2 -15 3 -15 5 0 14 7 21 15 10 12 10 15 -3 15 -8
0 -17 -7 -21 -15z"/>
<path d="M0 1292 c0 -43 3 -49 37 -72 20 -14 41 -24 45 -22 4 1 8 -2 8 -7 0
-9 48 -30 85 -38 11 -2 22 -8 23 -13 2 -6 12 -10 23 -10 10 0 19 -4 19 -10 0
-5 9 -10 20 -10 11 0 20 -4 20 -10 0 -5 7 -10 15 -10 8 0 15 -4 15 -9 0 -5 23
-14 50 -21 28 -7 50 -16 50 -21 0 -5 9 -9 20 -9 11 0 20 -4 20 -10 0 -5 6 -10
14 -10 8 0 16 -3 18 -7 5 -12 93 -53 112 -53 9 0 16 -7 16 -16 0 -13 3 -14 13
-5 8 6 17 9 20 6 4 -3 6 -3 4 -1 -7 13 -109 76 -122 76 -8 0 -15 6 -15 14 0 8
-15 19 -33 25 -17 6 -44 22 -59 36 -15 14 -32 25 -38 25 -5 0 -10 3 -10 8 0 4
-13 13 -29 20 -17 7 -51 30 -78 51 -26 21 -65 44 -85 50 -20 7 -42 19 -48 27
-7 7 -18 14 -25 14 -8 0 -15 3 -17 8 -1 4 -22 17 -45 29 l-43 21 0 -46z"/>
<path d="M690 899 c0 -5 5 -7 10 -4 6 3 10 8 10 11 0 2 -4 4 -10 4 -5 0 -10
-5 -10 -11z"/>
<path d="M4126 345 c-9 -24 -8 -25 15 -25 14 0 19 5 17 17 -4 23 -24 27 -32 8z"/>
<path d="M4145 250 c-3 -5 -1 -10 4 -10 6 0 11 -7 11 -15 0 -8 -8 -15 -17 -15
-10 0 -30 -6 -45 -14 -25 -13 -28 -13 -33 5 -8 23 -18 24 -35 4 -20 -24 -33
-18 -27 13 l5 27 -24 -30 c-13 -16 -24 -36 -24 -42 0 -7 -9 -13 -20 -13 -14 0
-20 -7 -20 -22 0 -17 -3 -19 -12 -10 -9 9 -9 15 0 24 19 19 14 28 -12 28 -14
0 -38 13 -55 30 l-30 30 -5 -52 c-4 -29 -8 -83 -10 -120 l-4 -68 229 0 c146 0
229 4 229 10 0 6 -4 10 -10 10 -5 0 -10 15 -9 32 1 32 -17 94 -48 171 -16 37
-27 45 -38 27z m-255 -100 c0 -5 -4 -10 -10 -10 -5 0 -10 5 -10 10 0 6 5 10
10 10 6 0 10 -4 10 -10z"/>
</g>
</svg>
